<mxfile host="app.diagrams.net" modified="2024-04-24T10:02:58.436Z" agent="Mozilla/5.0 (Macintosh; Intel Mac OS X 10_15_7) AppleWebKit/537.36 (KHTML, like Gecko) Chrome/124.0.0.0 Safari/537.36" etag="I0_8TnA3Xel5LdKjpBxc" version="24.2.8" type="device">
  <diagram name="Page-1" id="MaE8sihNqbvwA2QMmZeW">
    <mxGraphModel dx="3771" dy="2084" grid="1" gridSize="10" guides="0" tooltips="1" connect="1" arrows="1" fold="1" page="1" pageScale="1" pageWidth="850" pageHeight="1100" math="0" shadow="0">
      <root>
        <mxCell id="0" />
        <mxCell id="1" parent="0" />
        <mxCell id="zSKFYqf5KZoFIJSlTRXw-175" value="" style="line;strokeWidth=4;html=1;perimeter=backbonePerimeter;points=[];outlineConnect=0;rotation=60;" vertex="1" parent="1">
          <mxGeometry x="420" y="322.68" width="250" height="10" as="geometry" />
        </mxCell>
        <mxCell id="zSKFYqf5KZoFIJSlTRXw-176" value="&lt;h1&gt;50&lt;/h1&gt;" style="ellipse;whiteSpace=wrap;html=1;aspect=fixed;" vertex="1" parent="1">
          <mxGeometry x="400" y="160" width="80" height="80" as="geometry" />
        </mxCell>
        <mxCell id="zSKFYqf5KZoFIJSlTRXw-177" value="&lt;h1&gt;130&lt;/h1&gt;" style="ellipse;whiteSpace=wrap;html=1;aspect=fixed;" vertex="1" parent="1">
          <mxGeometry x="600" y="430" width="80" height="80" as="geometry" />
        </mxCell>
        <mxCell id="zSKFYqf5KZoFIJSlTRXw-178" value="" style="line;strokeWidth=4;html=1;perimeter=backbonePerimeter;points=[];outlineConnect=0;rotation=-60;" vertex="1" parent="1">
          <mxGeometry x="220.47000000000003" y="326.18" width="238.12" height="10" as="geometry" />
        </mxCell>
        <mxCell id="zSKFYqf5KZoFIJSlTRXw-179" value="&lt;h1&gt;15&lt;/h1&gt;" style="ellipse;whiteSpace=wrap;html=1;aspect=fixed;" vertex="1" parent="1">
          <mxGeometry x="220" y="430" width="80" height="80" as="geometry" />
        </mxCell>
        <mxCell id="zSKFYqf5KZoFIJSlTRXw-183" value="" style="line;strokeWidth=4;html=1;perimeter=backbonePerimeter;points=[];outlineConnect=0;rotation=-235;" vertex="1" parent="1">
          <mxGeometry x="110" y="560" width="160" height="10" as="geometry" />
        </mxCell>
        <mxCell id="zSKFYqf5KZoFIJSlTRXw-184" value="&lt;h1&gt;10&lt;/h1&gt;" style="ellipse;whiteSpace=wrap;html=1;aspect=fixed;" vertex="1" parent="1">
          <mxGeometry x="80" y="620" width="80" height="80" as="geometry" />
        </mxCell>
        <mxCell id="zSKFYqf5KZoFIJSlTRXw-187" value="" style="line;strokeWidth=4;html=1;perimeter=backbonePerimeter;points=[];outlineConnect=0;rotation=60;" vertex="1" parent="1">
          <mxGeometry x="250" y="560" width="160" height="10" as="geometry" />
        </mxCell>
        <mxCell id="zSKFYqf5KZoFIJSlTRXw-188" value="&lt;h1&gt;25, 30&lt;/h1&gt;" style="ellipse;whiteSpace=wrap;html=1;aspect=fixed;" vertex="1" parent="1">
          <mxGeometry x="350" y="630" width="80" height="80" as="geometry" />
        </mxCell>
        <mxCell id="zSKFYqf5KZoFIJSlTRXw-191" value="" style="line;strokeWidth=4;html=1;perimeter=backbonePerimeter;points=[];outlineConnect=0;rotation=-235;" vertex="1" parent="1">
          <mxGeometry x="490" y="570" width="160" height="10" as="geometry" />
        </mxCell>
        <mxCell id="zSKFYqf5KZoFIJSlTRXw-192" value="&lt;h1&gt;70&lt;/h1&gt;" style="ellipse;whiteSpace=wrap;html=1;aspect=fixed;" vertex="1" parent="1">
          <mxGeometry x="460" y="630" width="80" height="80" as="geometry" />
        </mxCell>
        <mxCell id="zSKFYqf5KZoFIJSlTRXw-193" value="" style="line;strokeWidth=4;html=1;perimeter=backbonePerimeter;points=[];outlineConnect=0;rotation=60;" vertex="1" parent="1">
          <mxGeometry x="630" y="570" width="160" height="10" as="geometry" />
        </mxCell>
        <mxCell id="zSKFYqf5KZoFIJSlTRXw-194" value="&lt;h1&gt;180&lt;/h1&gt;" style="ellipse;whiteSpace=wrap;html=1;aspect=fixed;" vertex="1" parent="1">
          <mxGeometry x="730" y="640" width="80" height="80" as="geometry" />
        </mxCell>
        <mxCell id="zSKFYqf5KZoFIJSlTRXw-197" value="" style="line;strokeWidth=4;html=1;perimeter=backbonePerimeter;points=[];outlineConnect=0;rotation=60;" vertex="1" parent="1">
          <mxGeometry x="1220" y="322.68" width="250" height="10" as="geometry" />
        </mxCell>
        <mxCell id="zSKFYqf5KZoFIJSlTRXw-198" value="&lt;h1&gt;70&lt;/h1&gt;" style="ellipse;whiteSpace=wrap;html=1;aspect=fixed;" vertex="1" parent="1">
          <mxGeometry x="1200" y="160" width="80" height="80" as="geometry" />
        </mxCell>
        <mxCell id="zSKFYqf5KZoFIJSlTRXw-199" value="&lt;h1&gt;130&lt;/h1&gt;" style="ellipse;whiteSpace=wrap;html=1;aspect=fixed;" vertex="1" parent="1">
          <mxGeometry x="1400" y="430" width="80" height="80" as="geometry" />
        </mxCell>
        <mxCell id="zSKFYqf5KZoFIJSlTRXw-200" value="" style="line;strokeWidth=4;html=1;perimeter=backbonePerimeter;points=[];outlineConnect=0;rotation=-60;" vertex="1" parent="1">
          <mxGeometry x="1020.47" y="326.18" width="238.12" height="10" as="geometry" />
        </mxCell>
        <mxCell id="zSKFYqf5KZoFIJSlTRXw-201" value="&lt;h1&gt;15&lt;/h1&gt;" style="ellipse;whiteSpace=wrap;html=1;aspect=fixed;" vertex="1" parent="1">
          <mxGeometry x="1020" y="430" width="80" height="80" as="geometry" />
        </mxCell>
        <mxCell id="zSKFYqf5KZoFIJSlTRXw-202" value="" style="line;strokeWidth=4;html=1;perimeter=backbonePerimeter;points=[];outlineConnect=0;rotation=-235;" vertex="1" parent="1">
          <mxGeometry x="910" y="560" width="160" height="10" as="geometry" />
        </mxCell>
        <mxCell id="zSKFYqf5KZoFIJSlTRXw-203" value="&lt;h1&gt;10&lt;/h1&gt;" style="ellipse;whiteSpace=wrap;html=1;aspect=fixed;" vertex="1" parent="1">
          <mxGeometry x="880" y="620" width="80" height="80" as="geometry" />
        </mxCell>
        <mxCell id="zSKFYqf5KZoFIJSlTRXw-204" value="" style="line;strokeWidth=4;html=1;perimeter=backbonePerimeter;points=[];outlineConnect=0;rotation=60;" vertex="1" parent="1">
          <mxGeometry x="1050" y="560" width="160" height="10" as="geometry" />
        </mxCell>
        <mxCell id="zSKFYqf5KZoFIJSlTRXw-205" value="&lt;h1&gt;25, 30&lt;/h1&gt;" style="ellipse;whiteSpace=wrap;html=1;aspect=fixed;" vertex="1" parent="1">
          <mxGeometry x="1150" y="630" width="80" height="80" as="geometry" />
        </mxCell>
        <mxCell id="zSKFYqf5KZoFIJSlTRXw-206" value="" style="line;strokeWidth=4;html=1;perimeter=backbonePerimeter;points=[];outlineConnect=0;rotation=-235;" vertex="1" parent="1">
          <mxGeometry x="1290" y="570" width="160" height="10" as="geometry" />
        </mxCell>
        <mxCell id="zSKFYqf5KZoFIJSlTRXw-207" value="&lt;h1&gt;&lt;br&gt;&lt;/h1&gt;" style="ellipse;whiteSpace=wrap;html=1;aspect=fixed;" vertex="1" parent="1">
          <mxGeometry x="1260" y="630" width="80" height="80" as="geometry" />
        </mxCell>
        <mxCell id="zSKFYqf5KZoFIJSlTRXw-208" value="" style="line;strokeWidth=4;html=1;perimeter=backbonePerimeter;points=[];outlineConnect=0;rotation=60;" vertex="1" parent="1">
          <mxGeometry x="1430" y="570" width="160" height="10" as="geometry" />
        </mxCell>
        <mxCell id="zSKFYqf5KZoFIJSlTRXw-209" value="&lt;h1&gt;180&lt;/h1&gt;" style="ellipse;whiteSpace=wrap;html=1;aspect=fixed;" vertex="1" parent="1">
          <mxGeometry x="1530" y="640" width="80" height="80" as="geometry" />
        </mxCell>
        <mxCell id="zSKFYqf5KZoFIJSlTRXw-210" value="&lt;h1&gt;Remove(50)&lt;/h1&gt;" style="text;html=1;align=center;verticalAlign=middle;resizable=0;points=[];autosize=1;strokeColor=none;fillColor=none;" vertex="1" parent="1">
          <mxGeometry x="70" y="48" width="160" height="70" as="geometry" />
        </mxCell>
        <mxCell id="zSKFYqf5KZoFIJSlTRXw-211" value="&lt;h1&gt;Replace with successor&lt;/h1&gt;" style="text;html=1;align=center;verticalAlign=middle;resizable=0;points=[];autosize=1;strokeColor=none;fillColor=none;" vertex="1" parent="1">
          <mxGeometry x="830" y="68" width="300" height="70" as="geometry" />
        </mxCell>
        <mxCell id="zSKFYqf5KZoFIJSlTRXw-212" value="" style="line;strokeWidth=4;html=1;perimeter=backbonePerimeter;points=[];outlineConnect=0;rotation=60;" vertex="1" parent="1">
          <mxGeometry x="430" y="1012.6800000000001" width="250" height="10" as="geometry" />
        </mxCell>
        <mxCell id="zSKFYqf5KZoFIJSlTRXw-213" value="&lt;h1&gt;70&lt;/h1&gt;" style="ellipse;whiteSpace=wrap;html=1;aspect=fixed;" vertex="1" parent="1">
          <mxGeometry x="410" y="850" width="80" height="80" as="geometry" />
        </mxCell>
        <mxCell id="zSKFYqf5KZoFIJSlTRXw-215" value="" style="line;strokeWidth=4;html=1;perimeter=backbonePerimeter;points=[];outlineConnect=0;rotation=-60;" vertex="1" parent="1">
          <mxGeometry x="230.47000000000003" y="1016.1800000000001" width="238.12" height="10" as="geometry" />
        </mxCell>
        <mxCell id="zSKFYqf5KZoFIJSlTRXw-216" value="&lt;h1&gt;15&lt;/h1&gt;" style="ellipse;whiteSpace=wrap;html=1;aspect=fixed;" vertex="1" parent="1">
          <mxGeometry x="230" y="1120" width="80" height="80" as="geometry" />
        </mxCell>
        <mxCell id="zSKFYqf5KZoFIJSlTRXw-217" value="" style="line;strokeWidth=4;html=1;perimeter=backbonePerimeter;points=[];outlineConnect=0;rotation=-235;" vertex="1" parent="1">
          <mxGeometry x="120" y="1250" width="160" height="10" as="geometry" />
        </mxCell>
        <mxCell id="zSKFYqf5KZoFIJSlTRXw-218" value="&lt;h1&gt;10&lt;/h1&gt;" style="ellipse;whiteSpace=wrap;html=1;aspect=fixed;" vertex="1" parent="1">
          <mxGeometry x="90" y="1310" width="80" height="80" as="geometry" />
        </mxCell>
        <mxCell id="zSKFYqf5KZoFIJSlTRXw-219" value="" style="line;strokeWidth=4;html=1;perimeter=backbonePerimeter;points=[];outlineConnect=0;rotation=60;" vertex="1" parent="1">
          <mxGeometry x="260" y="1250" width="160" height="10" as="geometry" />
        </mxCell>
        <mxCell id="zSKFYqf5KZoFIJSlTRXw-220" value="&lt;h1&gt;25, 30&lt;/h1&gt;" style="ellipse;whiteSpace=wrap;html=1;aspect=fixed;" vertex="1" parent="1">
          <mxGeometry x="360" y="1320" width="80" height="80" as="geometry" />
        </mxCell>
        <mxCell id="zSKFYqf5KZoFIJSlTRXw-221" value="" style="line;strokeWidth=4;html=1;perimeter=backbonePerimeter;points=[];outlineConnect=0;rotation=90;" vertex="1" parent="1">
          <mxGeometry x="570" y="1270" width="160" height="10" as="geometry" />
        </mxCell>
        <mxCell id="zSKFYqf5KZoFIJSlTRXw-222" value="&lt;h1&gt;130, 180&lt;/h1&gt;" style="ellipse;whiteSpace=wrap;html=1;aspect=fixed;" vertex="1" parent="1">
          <mxGeometry x="590" y="1350" width="110" height="110" as="geometry" />
        </mxCell>
        <mxCell id="zSKFYqf5KZoFIJSlTRXw-214" value="&lt;h1&gt;&lt;br&gt;&lt;/h1&gt;" style="ellipse;whiteSpace=wrap;html=1;aspect=fixed;" vertex="1" parent="1">
          <mxGeometry x="610" y="1120" width="80" height="80" as="geometry" />
        </mxCell>
        <mxCell id="zSKFYqf5KZoFIJSlTRXw-225" value="&lt;h1&gt;Fusion&lt;/h1&gt;" style="text;html=1;align=center;verticalAlign=middle;resizable=0;points=[];autosize=1;strokeColor=none;fillColor=none;" vertex="1" parent="1">
          <mxGeometry x="110" y="830" width="100" height="70" as="geometry" />
        </mxCell>
        <mxCell id="zSKFYqf5KZoFIJSlTRXw-229" value="&lt;h1&gt;15, 70&lt;/h1&gt;" style="ellipse;whiteSpace=wrap;html=1;aspect=fixed;" vertex="1" parent="1">
          <mxGeometry x="1180" y="1050" width="80" height="80" as="geometry" />
        </mxCell>
        <mxCell id="zSKFYqf5KZoFIJSlTRXw-230" value="" style="line;strokeWidth=4;html=1;perimeter=backbonePerimeter;points=[];outlineConnect=0;rotation=-235;" vertex="1" parent="1">
          <mxGeometry x="1039.34" y="1209.52" width="210" height="10" as="geometry" />
        </mxCell>
        <mxCell id="zSKFYqf5KZoFIJSlTRXw-231" value="&lt;h1&gt;10&lt;/h1&gt;" style="ellipse;whiteSpace=wrap;html=1;aspect=fixed;" vertex="1" parent="1">
          <mxGeometry x="1020" y="1290" width="80" height="80" as="geometry" />
        </mxCell>
        <mxCell id="zSKFYqf5KZoFIJSlTRXw-232" value="" style="line;strokeWidth=4;html=1;perimeter=backbonePerimeter;points=[];outlineConnect=0;rotation=0;direction=south;" vertex="1" parent="1">
          <mxGeometry x="1215" y="1135" width="10" height="160" as="geometry" />
        </mxCell>
        <mxCell id="zSKFYqf5KZoFIJSlTRXw-233" value="&lt;h1&gt;25, 30&lt;/h1&gt;" style="ellipse;whiteSpace=wrap;html=1;aspect=fixed;" vertex="1" parent="1">
          <mxGeometry x="1180" y="1290" width="80" height="80" as="geometry" />
        </mxCell>
        <mxCell id="zSKFYqf5KZoFIJSlTRXw-234" value="" style="line;strokeWidth=4;html=1;perimeter=backbonePerimeter;points=[];outlineConnect=0;rotation=60;" vertex="1" parent="1">
          <mxGeometry x="1200" y="1207.32" width="200" height="10" as="geometry" />
        </mxCell>
        <mxCell id="zSKFYqf5KZoFIJSlTRXw-235" value="&lt;h1&gt;130, 180&lt;/h1&gt;" style="ellipse;whiteSpace=wrap;html=1;aspect=fixed;" vertex="1" parent="1">
          <mxGeometry x="1310" y="1300" width="100" height="100" as="geometry" />
        </mxCell>
        <mxCell id="zSKFYqf5KZoFIJSlTRXw-237" value="&lt;h1&gt;Fusion&lt;/h1&gt;" style="text;html=1;align=center;verticalAlign=middle;resizable=0;points=[];autosize=1;strokeColor=none;fillColor=none;" vertex="1" parent="1">
          <mxGeometry x="990" y="840" width="100" height="70" as="geometry" />
        </mxCell>
      </root>
    </mxGraphModel>
  </diagram>
</mxfile>
